<svg xmlns="http://www.w3.org/2000/svg" viewBox="0 0 32 32"><g><circle fill="#f7931a" cx="16" cy="16" r="16"/><path fill="#fff" d="M22.1 13.7c.3-2.1-1.3-3.2-3.5-4l.7-2.8-1.7-.4-.7 2.7c-.5-.1-1-.2-1.5-.3l.7-2.7-1.7-.4-.7 2.8c-.4-.1-.8-.2-1.2-.3l.1-.5-2-.5-.5 1.8s1.1.2 1.1.3c.6.1.7.5.7.8l-.7 2.7c.1 0 .2.1.3.1-.1 0-.2-.1-.3-.1l-.7 2.7c-.1.3-.4.7-1.1.6 0 0-1.1-.3-1.1-.3l-.5 1.9 1.9.5c.4.1.8.2 1.2.3l-.7 2.8 1.7.4.7-2.8c.5.1 1 .2 1.5.3l-.7 2.8 1.7.4.7-2.8c2.9.6 5.1.4 6-2.3.7-2-0.1-3.1-1.5-3.8.9-.2 1.5-.8 1.7-2zm-3.1 4.3c-.4 1.4-2.7.7-3.5.5l.6-2.2c.8.2 3.3.7 2.9 1.7zm.4-4.4c-.4 1.3-2.1.6-2.7.5l.5-2c.6.1 2.7.4 2.2 1.5z"/></g></svg>