<svg xmlns="http://www.w3.org/2000/svg" viewBox="0 0 32 32"><g><linearGradient id="solana-gradient" x1="0" y1="0" x2="32" y2="32" gradientUnits="userSpaceOnUse"><stop offset="0%" stop-color="#00ffa3"/><stop offset="100%" stop-color="#dc1fff"/></linearGradient><rect width="32" height="32" rx="16" fill="#19161c"/><path fill="url(#solana-gradient)" d="M7.5 21.5c0-.3.2-.5.5-.5h15.7c.4 0 .6.5.3.8l-3.1 3.2c-.2.2-.4.3-.7.3H7.5c-.4 0-.6-.5-.3-.8l3.1-3.2c.2-.2.4-.3.7-.3zm0-6.5c0-.3.2-.5.5-.5h15.7c.4 0 .6.5.3.8l-3.1 3.2c-.2.2-.4.3-.7.3H7.5c-.4 0-.6-.5-.3-.8l3.1-3.2c.2-.2.4-.3.7-.3zm0-6.5c0-.3.2-.5.5-.5h15.7c.4 0 .6.5.3.8l-3.1 3.2c-.2.2-.4.3-.7.3H7.5c-.4 0-.6-.5-.3-.8l3.1-3.2c.2-.2.4-.3.7-.3z"/></g></svg>