<svg xmlns="http://www.w3.org/2000/svg" viewBox="0 0 64 64">
  <defs>
    <linearGradient id="solanaGrad" x1="0%" y1="0%" x2="100%" y2="100%">
      <stop offset="0%" style="stop-color:#14F195;stop-opacity:1" />
      <stop offset="50%" style="stop-color:#9945FF;stop-opacity:1" />
      <stop offset="100%" style="stop-color:#8A3FFC;stop-opacity:1" />
    </linearGradient>
  </defs>
  
  <!-- Background circle -->
  <circle cx="32" cy="32" r="31" fill="#0b0e1a" stroke="url(#solanaGrad)" stroke-width="2"/>
  
  <!-- Solana-inspired triangular accent -->
  <path d="M 16 22 L 48 22 L 40 14 Z" fill="url(#solanaGrad)" opacity="0.3"/>
  <path d="M 16 42 L 48 42 L 40 50 Z" fill="url(#solanaGrad)" opacity="0.3"/>
  
  <!-- Dollar sign with Solana gradient -->
  <path d="M 32 12 L 32 52" stroke="url(#solanaGrad)" stroke-width="4" stroke-linecap="round"/>
  <path d="M 24 20 C 24 16 26 14 32 14 C 38 14 40 16 40 20 C 40 24 38 26 32 26 C 26 26 24 28 24 32 C 24 36 26 38 32 38 C 38 38 40 36 40 32" 
        stroke="url(#solanaGrad)" stroke-width="4" fill="none" stroke-linecap="round" stroke-linejoin="round"/>
</svg>
